<svg xmlns="http://www.w3.org/2000/svg" viewBox="0 0 122.8 122.8" width="240" height="240" role="img" aria-label="Slack">
  <path fill="#E01E5A" d="M25.8 77.6a12.9 12.9 0 1 1-12.9-12.9h12.9zm6.5 0a12.9 12.9 0 0 1 25.8 0v32.3a12.9 12.9 0 0 1-25.8 0z"/>
  <path fill="#36C5F0" d="M45.2 25.8a12.9 12.9 0 1 1 12.9-12.9v12.9zm0 6.5a12.9 12.9 0 0 1 0 25.8H12.9a12.9 12.9 0 0 1 0-25.8z"/>
  <path fill="#2EB67D" d="M97 45.2a12.9 12.9 0 1 1 12.9 12.9H97zm-6.5 0a12.9 12.9 0 0 1-25.8 0V12.9a12.9 12.9 0 0 1 25.8 0z"/>
  <path fill="#ECB22E" d="M77.6 97a12.9 12.9 0 1 1-12.9 12.9V97zm0-6.5a12.9 12.9 0 0 1 0-25.8h32.3a12.9 12.9 0 0 1 0 25.8z"/>
</svg>
